<?xml version="1.0" encoding="UTF-8" standalone="no" ?>
<!DOCTYPE svg PUBLIC "-//W3C//DTD SVG 1.1//EN" "http://www.w3.org/Graphics/SVG/1.1/DTD/svg11.dtd">
<svg xmlns="http://www.w3.org/2000/svg" xmlns:xlink="http://www.w3.org/1999/xlink" version="1.1" width="32" height="32" viewBox="0 0 640 640" xml:space="preserve">
<desc>Created with Fabric.js 5.3.0</desc>
<defs>
</defs>
<g transform="matrix(1 0 0 1 320 320)" id="YJX60Wcc5JzZDbhYa-KZz"  >
<g style="" vector-effect="non-scaling-stroke"   >
		<g transform="matrix(3.7795275591 0 0 3.7795275591 0.3756888189 100.0904007972)" id="0uqWyINcTx3uLtrBVuWN0"  >
<path style="stroke: none; stroke-width: 0.264583; stroke-dasharray: none; stroke-linecap: butt; stroke-dashoffset: 0; stroke-linejoin: miter; stroke-miterlimit: 4; fill: rgb(0,0,128); fill-rule: nonzero; opacity: 1;" vector-effect="non-scaling-stroke"  transform=" translate(-44.231785, -11.066785)" d="M 0 22.13357 L 0 0 L 88.46357 0 L 88.46357 22.13357 z" stroke-linecap="round" />
</g>
		<g transform="matrix(3.7795275591 0 0 3.7795275591 -208.2258840945 70.8591963878)" id="eQKmSe5yEs-jHAbM_VKEm"  >
<path style="stroke: none; stroke-width: 0.392156; stroke-dasharray: none; stroke-linecap: butt; stroke-dashoffset: 0; stroke-linejoin: miter; stroke-miterlimit: 4; fill: rgb(0,0,128); fill-rule: nonzero; opacity: 1;" vector-effect="non-scaling-stroke"  transform=" translate(-11.102145, -26.225885)" d="M 0 52.45177 L 0 0 L 22.20429 0 L 22.20429 52.45177 z" stroke-linecap="round" />
</g>
		<g transform="matrix(3.7795275591 0 0 3.7795275591 -194.6932119685 -28.1399929035)" id="X3MONMfKvAV0L2xIiXK5V"  >
<path style="stroke: none; stroke-width: 0.266143; stroke-dasharray: none; stroke-linecap: butt; stroke-dashoffset: 0; stroke-linejoin: miter; stroke-miterlimit: 4; fill: rgb(0,0,128); fill-rule: nonzero; opacity: 1;" vector-effect="non-scaling-stroke"  transform=" translate(-7.48788, -6.60034)" d="M 0 6.60034 C 0 2.95507 3.35244 0 7.48788 0 C 11.62332 0 14.97576 2.95507 14.97576 6.60034 C 14.97576 10.24561 11.62332 13.20068 7.48788 13.20068 C 3.3524399999999996 13.20068 0 10.24561 0 6.60034 z" stroke-linecap="round" />
</g>
		<g transform="matrix(3.7795275591 0 0 3.7795275591 -210.1428425197 -31.9433466043)" id="PQX9YVD6YPTjgmJwViBsE"  >
<path style="stroke: none; stroke-width: 0.268349; stroke-dasharray: none; stroke-linecap: butt; stroke-dashoffset: 0; stroke-linejoin: miter; stroke-miterlimit: 4; fill: rgb(0,0,128); fill-rule: nonzero; opacity: 1;" vector-effect="non-scaling-stroke"  transform=" translate(-4.10021, -5.606535)" d="M 0 11.21307 L 0 0 L 8.20042 0 L 8.20042 11.21307 z" stroke-linecap="round" />
</g>
		<g transform="matrix(3.7795275591 0 0 3.7795275591 -221.4555930709 2.5382055217)" id="Zv8Mok0MOnKwnpBYY-xTL"  >
<path style="stroke: none; stroke-width: 0.366764; stroke-dasharray: none; stroke-linecap: butt; stroke-dashoffset: 0; stroke-linejoin: miter; stroke-miterlimit: 4; fill: rgb(0,0,128); fill-rule: nonzero; opacity: 1;" vector-effect="non-scaling-stroke"  transform=" translate(-14.81464, -14.81464)" d="M 0 14.81464 C 0 6.63274 6.63274 0 14.81464 0 C 22.996540000000003 0 29.62928 6.63274 29.62928 14.81464 C 29.62928 22.996540000000003 22.996540000000003 29.62928 14.81464 29.62928 C 6.63274 29.62928 0 22.996540000000003 0 14.81464 z" stroke-linecap="round" />
</g>
		<g transform="matrix(3.7795275591 0 0 -3.7795275591 208.2258840945 70.8261988067)" id="hDqQX5mHigtkAMkcgSQX3"  >
<path style="stroke: none; stroke-width: 0.392156; stroke-dasharray: none; stroke-linecap: butt; stroke-dashoffset: 0; stroke-linejoin: miter; stroke-miterlimit: 4; fill: rgb(0,0,128); fill-rule: nonzero; opacity: 1;" vector-effect="non-scaling-stroke"  transform=" translate(-11.102145, -26.225885)" d="M 0 52.45177 L 0 0 L 22.20429 0 L 22.20429 52.45177 z" stroke-linecap="round" />
</g>
		<g transform="matrix(3.7795275591 0 0 -3.7795275591 194.6932119685 -28.1729904846)" id="GfEUoKKSRa0wy62WxBZxC"  >
<path style="stroke: none; stroke-width: 0.266143; stroke-dasharray: none; stroke-linecap: butt; stroke-dashoffset: 0; stroke-linejoin: miter; stroke-miterlimit: 4; fill: rgb(0,0,128); fill-rule: nonzero; opacity: 1;" vector-effect="non-scaling-stroke"  transform=" translate(-7.48788, -6.60034)" d="M 0 6.60034 C 0 2.95507 3.35244 0 7.48788 0 C 11.62332 0 14.97576 2.95507 14.97576 6.60034 C 14.97576 10.24561 11.62332 13.20068 7.48788 13.20068 C 3.3524399999999996 13.20068 0 10.24561 0 6.60034 z" stroke-linecap="round" />
</g>
		<g transform="matrix(3.7795275591 0 0 -3.7795275591 210.1428425197 -31.9763441854)" id="MDULuVLlsihdrmdOytLVh"  >
<path style="stroke: none; stroke-width: 0.268349; stroke-dasharray: none; stroke-linecap: butt; stroke-dashoffset: 0; stroke-linejoin: miter; stroke-miterlimit: 4; fill: rgb(0,0,128); fill-rule: nonzero; opacity: 1;" vector-effect="non-scaling-stroke"  transform=" translate(-4.10021, -5.606535)" d="M 0 11.21307 L 0 0 L 8.20042 0 L 8.20042 11.21307 z" stroke-linecap="round" />
</g>
		<g transform="matrix(3.7795275591 0 0 -3.7795275591 221.4555930709 2.5052079406)" id="AUqsykb6m4pVpdZavRo-4"  >
<path style="stroke: none; stroke-width: 0.366764; stroke-dasharray: none; stroke-linecap: butt; stroke-dashoffset: 0; stroke-linejoin: miter; stroke-miterlimit: 4; fill: rgb(0,0,128); fill-rule: nonzero; opacity: 1;" vector-effect="non-scaling-stroke"  transform=" translate(-14.81464, -14.81464)" d="M 0 14.81464 C 0 6.63274 6.63274 0 14.81464 0 C 22.996540000000003 0 29.62928 6.63274 29.62928 14.81464 C 29.62928 22.996540000000003 22.996540000000003 29.62928 14.81464 29.62928 C 6.63274 29.62928 0 22.996540000000003 0 14.81464 z" stroke-linecap="round" />
</g>
		<g transform="matrix(3.7795275591 0 0 3.7795275591 -1.8083111811 -66.1494184154)" id="ijNY9Q0d-0Jrg2zbr8t7c"  >
<path style="stroke: none; stroke-width: 0.267996; stroke-dasharray: none; stroke-linecap: butt; stroke-dashoffset: 0; stroke-linejoin: miter; stroke-miterlimit: 4; fill: rgb(0,0,128); fill-rule: nonzero; opacity: 1;" vector-effect="non-scaling-stroke"  transform=" translate(-37.077505, -25.84607)" d="M 0 51.69214 L 0 0 L 74.15501 0 L 74.15501 51.69214 z" stroke-linecap="round" />
</g>
		<g transform="matrix(3.7795275591 0 0 3.7795275591 -181.4952453543 -98.2538385728)" id="H-YQ4f8pqkxVVBDyobCBd"  >
<path style="stroke: none; stroke-width: 0.263735; stroke-dasharray: none; stroke-linecap: butt; stroke-dashoffset: 0; stroke-linejoin: miter; stroke-miterlimit: 4; fill: rgb(0,0,128); fill-rule: nonzero; opacity: 1;" vector-effect="non-scaling-stroke"  transform=" translate(-48.581768, -118.756055)" d="M 59.561617 135.90693 L 58.766695 132.30675 L 54.195899 126.60646 L 50.221294 124.40635 L 46.644146 123.80631 L 37.601918999999995 123.5063 L 38.198108999999995 119.20608 L 39.986681999999995 113.7058 L 42.570176 109.70559999999999 L 48.333355999999995 104.90534999999998 L 54.59336 102.10520999999999 L 59.561617 101.60517999999999 z" stroke-linecap="round" />
</g>
		<g transform="matrix(3.7795275591 0 0 3.7795275591 180.1124787402 -95.4150921161)" id="W-25EVVJpInWyktUfpEyl"  >
<path style="stroke: none; stroke-width: 0.264583; stroke-dasharray: none; stroke-linecap: butt; stroke-dashoffset: 0; stroke-linejoin: miter; stroke-miterlimit: 4; fill: rgb(0,0,128); fill-rule: nonzero; opacity: 1;" vector-effect="non-scaling-stroke"  transform=" translate(-144.257145, -119.50714)" d="M 133.22571 137.57464 L 133.61463999999998 134.85214 L 135.20570999999998 130.92749999999998 L 137.46856999999997 127.95749999999998 L 140.47392999999997 125.58856999999998 L 143.30249999999998 124.28035999999997 L 145.98963999999998 123.71463999999997 L 147.61606999999998 123.50249999999997 L 155.32393 123.50249999999997 L 155.07643 120.21428999999996 L 154.22786 116.92606999999997 L 152.53071 112.89534999999997 L 149.91429 109.14749999999997 L 147.43928 106.63713999999996 L 143.83285999999998 104.19749999999996 L 140.8275 102.81856999999997 L 136.37249999999997 101.82856999999997 L 133.19035999999997 101.43963999999997 z" stroke-linecap="round" />
</g>
		<g transform="matrix(3.7795275591 0 0 3.7795275591 137.986624252 -60.1968915492)" id="ju-WlHOMhEvQ4r0aVOb5K"  >
<path style="stroke: none; stroke-width: 0.264583; stroke-dasharray: none; stroke-linecap: butt; stroke-dashoffset: 0; stroke-linejoin: miter; stroke-miterlimit: 4; fill: rgb(0,0,128); fill-rule: nonzero; opacity: 1;" vector-effect="non-scaling-stroke"  transform=" translate(-146.68849, -127.69386)" d="M 145.98305 125.34799 C 145.88231 125.71526 145.70234 126.05360999999999 145.5076 126.37859999999999 C 145.4183 126.52768999999999 145.32976 126.67765999999999 145.22985 126.81988 C 145.12895 126.9635 145.0139 127.09663 144.90593 127.23501 C 144.68526 127.49956 144.5147 127.71355 144.2784 127.96152000000001 C 144.1904 128.05382 144.09599 128.13979 144.00478 128.22892000000002 C 144.00478 128.22892000000002 147.03560000000002 130.03973000000002 147.03560000000002 130.03973000000002 L 147.03560000000002 130.03973000000002 C 147.26466000000002 129.66313000000002 147.50122000000002 129.29119000000003 147.77565 128.94519000000003 C 147.88359000000003 128.80644000000004 147.98519000000002 128.66251000000003 148.09948 128.52894000000003 C 148.21617 128.39258000000004 148.3438 128.26597000000004 148.46784 128.13627000000002 C 148.74543 127.84600000000002 149.03332 127.56759000000002 149.3722 127.34863000000003 C 149.3722 127.34863000000003 145.98305 125.34799000000002 145.98305 125.34799000000002 z" stroke-linecap="round" />
</g>
		<g transform="matrix(3.7795275591 0 0 3.7795275591 135.6735155906 -52.640708872)" id="s5q4zHkOYyS8VP1wgNbAu"  >
<path style="stroke: none; stroke-width: 0.264583; stroke-dasharray: none; stroke-linecap: butt; stroke-dashoffset: 0; stroke-linejoin: miter; stroke-miterlimit: 4; fill: rgb(0,0,128); fill-rule: nonzero; opacity: 1;" vector-effect="non-scaling-stroke"  transform=" translate(-146.07648, -129.6931)" d="M 146.40492 124.41566 C 146.41192 124.45286 146.42512 124.48936 146.42672000000002 124.52721 C 146.43372000000002 124.68482999999999 146.40352000000001 124.91767 146.38092 125.06416 C 146.30892 125.52931 146.18259 125.97419000000001 146.04966000000002 126.42484 C 145.84327000000002 127.16225 145.56600000000003 127.87904 145.24165000000002 128.57234 C 145.07840000000002 128.9213 144.93445000000003 129.19017 144.75730000000001 129.53151 C 144.42754000000002 130.11742 144.10031 130.70591 143.72706000000002 131.26568 C 143.63486000000003 131.40392 143.33056000000002 131.83797 143.23263000000003 131.97814 C 142.94761000000003 132.36016 142.63829000000004 132.72617 142.25473000000002 133.01187 C 142.25473000000002 133.01187 145.48922000000002 134.97054 145.48922000000002 134.97054 L 145.48922000000002 134.97054 C 145.73747000000003 134.55922 145.96140000000003 134.13342 146.22035000000002 133.72836 C 146.29775000000004 133.60602 146.37866000000002 133.4858 146.45262000000002 133.36134 C 146.54912000000002 133.19892000000002 146.81405000000004 132.7057 146.90079000000003 132.54796000000002 C 147.06615000000002 132.24725 147.23797000000002 131.95011000000002 147.40172000000004 131.64853000000002 C 147.48622000000003 131.49289000000002 147.56704000000005 131.33527 147.64970000000005 131.17863000000003 C 147.85530000000006 130.75309000000001 147.92560000000006 130.62071000000003 148.11134000000004 130.18279000000004 C 148.41149000000004 129.47514000000004 148.66856000000004 128.74949000000004 148.98618000000005 128.04915000000003 C 149.05168000000003 127.89185000000002 149.11350000000004 127.73301000000002 149.18257000000006 127.57726000000002 C 149.28451000000007 127.34737000000003 149.44026000000005 127.03547000000002 149.55960000000005 126.80774000000002 C 149.64650000000006 126.64193000000003 149.70743000000004 126.52397000000002 149.81213000000005 126.37605000000002 C 149.83863000000005 126.33865000000002 149.86953000000005 126.30465000000002 149.89823000000004 126.26889000000003 C 149.89823000000004 126.26889000000003 146.40491000000003 124.41566000000003 146.40491000000003 124.41566000000003 z" stroke-linecap="round" />
</g>
		<g transform="matrix(3.7795275591 0 0 3.7795275591 139.3891124409 -79.8265104469)" id="uU13THZy29tejVdzpyI_O"  >
<path style="stroke: none; stroke-width: 0.264583; stroke-dasharray: none; stroke-linecap: butt; stroke-dashoffset: 0; stroke-linejoin: miter; stroke-miterlimit: 4; fill: rgb(0,0,128); fill-rule: nonzero; opacity: 1;" vector-effect="non-scaling-stroke"  transform=" translate(-147.059565, -122.50019)" d="M 146.79309 127.02399 C 146.91503 126.79565 146.9563 126.53417 147.06752 126.30194999999999 C 147.33748 125.73826999999999 147.76044 125.12798 148.1274 124.63864999999998 C 148.7754 123.77453999999999 149.1455 123.38545999999998 149.86544 122.56440999999998 C 150.67324 121.73211999999998 150.88562000000002 121.48272999999998 151.72971 120.72656999999998 C 151.98644000000002 120.49658999999998 152.25318000000001 120.27796999999998 152.51897000000002 120.05850999999998 C 152.74261 119.87383999999999 153.26762000000002 119.42572999999999 153.58353000000002 119.28319999999998 C 153.66333000000003 119.24719999999998 153.75673000000003 119.25769999999999 153.84333000000004 119.24499999999998 C 152.71136000000004 118.66179999999997 151.66587000000004 117.86532999999997 150.44741000000005 117.49539999999998 C 150.22774000000004 117.42869999999998 150.31224000000006 117.93636999999997 150.20988000000006 118.14184999999998 C 150.04336000000006 118.47614999999998 149.85608000000005 118.80146999999998 149.64378000000005 119.10871999999998 C 149.00657000000004 120.03088999999997 148.26738000000006 120.85566999999998 147.44449000000006 121.61713999999998 C 146.97885000000005 122.04802999999998 146.47030000000007 122.43009999999998 145.98321000000007 122.83657999999998 C 144.63980000000006 123.78827999999999 144.54472000000007 123.90794999999999 143.17399000000006 124.69067999999999 C 142.80853000000005 124.89937999999998 142.43883000000005 125.10207999999999 142.05767000000006 125.28048999999999 C 141.77207000000007 125.41416999999998 140.97508000000005 125.78029999999998 140.56265000000005 125.68402999999999 C 140.43406000000004 125.65402999999999 140.37142000000006 125.50188 140.27580000000006 125.41081 C 140.27580000000006 125.41081 143.19653000000005 127.6765 143.19653000000005 127.6765 L 143.19653000000005 127.6765 C 143.25473000000005 127.6354 143.32010000000005 127.6031 143.37103000000005 127.55332 C 143.47844000000003 127.44839999999999 143.56887000000006 127.32739 143.66872000000004 127.21525 C 143.84210000000004 127.02051 144.01203000000004 126.82257 144.19071000000002 126.63268 C 145.17632000000003 125.58523 146.22495000000004 124.59652 147.34085000000002 123.68844999999999 C 147.84740000000002 123.29227999999999 148.34574 122.88538999999999 148.86050000000003 122.49994 C 149.78050000000002 121.81105 150.85278000000002 121.07376 151.82141000000004 120.44301 C 152.17326000000006 120.2139 152.52472000000003 119.98332 152.88895000000005 119.77445 C 153.11896000000004 119.64255 153.78531000000004 119.61348 153.60199000000006 119.42191 C 152.74736000000007 118.52877 151.56334000000007 118.02323 150.54402000000005 117.32388 C 150.57902000000004 117.39328 150.65231000000006 117.4545 150.64907000000005 117.53221 C 150.63567000000006 117.85426000000001 150.29694000000006 118.41862 150.16514000000006 118.63231 C 149.54334000000006 119.64042 148.76460000000006 120.54 147.95866000000007 121.40302 C 147.14229000000006 122.20148999999999 146.79551000000006 122.56952 145.93280000000007 123.30233 C 145.63036000000008 123.55923 145.32124000000007 123.80874 145.00252000000006 124.04513 C 144.50725000000006 124.41247 144.21623000000005 124.61338 143.67253000000005 124.8243 C 143.61623000000006 124.8462 143.55317000000005 124.84339999999999 143.49349000000007 124.853 C 143.49349000000007 124.853 146.79309000000006 127.02402 146.79309000000006 127.02402 z" stroke-linecap="round" />
</g>
		<g transform="matrix(3.7795275591 0 0 3.7795275591 137.5339707035 -82.7983385059)" id="pwVJqfmiSZaum0E3ODb57"  >
<path style="stroke: none; stroke-width: 0.264583; stroke-dasharray: none; stroke-linecap: butt; stroke-dashoffset: 0; stroke-linejoin: miter; stroke-miterlimit: 4; fill: rgb(0,0,128); fill-rule: nonzero; opacity: 1;" vector-effect="non-scaling-stroke"  transform=" translate(-146.5687254153, -121.713893826)" d="M 145.50513 120.51053 C 145.50413 120.71679 145.52553 120.9244 145.50213000000002 121.12932 C 145.47773 121.34196 145.28836 122.14965000000001 145.15327000000002 122.34982000000001 C 145.09247000000002 122.43992000000001 144.77388000000002 122.45379000000001 144.86808000000002 122.50806000000001 C 148.62224000000003 124.67074000000001 148.79095 125.08226000000002 147.97375000000002 123.75514000000001 C 147.81633000000002 122.88748000000001 147.81705000000002 122.00204000000001 147.91505000000004 121.12750000000001 C 147.94805000000002 120.83332000000001 148.00865000000005 120.54291 148.05550000000002 120.25061000000001 C 148.05550000000002 120.25061000000001 145.51139000000003 118.91359000000001 145.51139000000003 118.91359000000001 L 145.51139000000003 118.91359000000001 C 145.48259000000004 119.21645000000001 145.46479000000002 119.52055000000001 145.42509000000004 119.82219000000002 C 145.32110000000003 120.61438000000003 145.16281000000004 121.40723000000003 144.84424000000004 122.14369000000002 C 143.99386000000004 123.64026000000003 144.27636000000004 122.81258000000003 148.02597000000003 124.29037000000002 C 148.14622000000003 124.33777000000002 147.97157000000004 124.03276000000002 147.98757000000003 123.90450000000003 C 148.01317000000003 123.69911000000003 148.08407000000003 123.50148000000003 148.14883000000003 123.30489000000003 C 148.35570000000004 122.67668000000003 148.35627000000002 122.74372000000002 148.69029000000003 122.21190000000003 C 148.69029000000003 122.21190000000003 145.50516000000005 120.51053000000003 145.50516000000005 120.51053000000003 z" stroke-linecap="round" />
</g>
		<g transform="matrix(3.7795275591 0 0 3.7795275591 138.7597786635 -121.8269450925)" id="upM6mGwK2uj-OCNP67zqN"  >
<path style="stroke: none; stroke-width: 0.264583; stroke-dasharray: none; stroke-linecap: butt; stroke-dashoffset: 0; stroke-linejoin: miter; stroke-miterlimit: 4; fill: rgb(0,0,128); fill-rule: nonzero; opacity: 1;" vector-effect="non-scaling-stroke"  transform=" translate(-146.8930537714, -111.387575)" d="M 148.40529 121.51425 C 148.39729 121.46715 148.38569 121.42055 148.38089 121.37304 C 148.35709 121.13761000000001 148.37288999999998 120.89691 148.37689 120.66113 C 148.38089 120.437 148.38489 120.21285 148.38889 119.98872 C 148.38289 119.60145 148.42299 119.21373 148.41169 118.8265 C 148.40669 118.64712999999999 148.38339 118.46858 148.37839 118.28921 C 148.36679 117.87178 148.38738999999998 117.57028 148.40599 117.15357 C 148.47819 116.18001 148.55571 115.20674 148.63463000000002 114.23366 C 148.64483 114.0976 148.65693000000002 113.96167 148.66513 113.82546 C 148.68093000000002 113.56108 148.68803 113.29622 148.70293 113.03178000000001 C 148.72223 112.68782000000002 148.75053 112.34452000000002 148.77313 112.00078 C 148.80603000000002 111.4226 148.82043000000002 110.84361000000001 148.84183000000002 110.26495 C 148.84383000000003 110.18105 148.84883000000002 110.09715 148.84783000000002 110.01322 C 148.84683 109.91762 148.83683000000002 109.82235 148.83433000000002 109.72681 C 148.82533000000004 109.37006 148.83833 109.01163 148.84763 108.65497 C 148.88643000000002 108.19127 148.84963000000002 107.72745 148.83863000000002 107.26376 C 148.83163000000002 106.99241 148.84663000000003 106.7197 148.83063 106.44854000000001 C 148.82263 106.3057 148.80443000000002 106.16356 148.79143000000002 106.02105 C 148.76103000000003 105.60501000000001 148.74783000000002 105.18833000000001 148.74503 104.77124 C 148.73603000000003 104.45060000000001 148.75983000000002 104.13040000000001 148.75543000000002 103.80979 C 148.74943000000002 103.57481000000001 148.76943000000003 103.34022 148.79103 103.10646000000001 C 148.79303000000002 103.08246000000001 148.79503 103.05846000000001 148.79703 103.03446000000001 C 148.79703 103.03446000000001 145.31689 101.2609 145.31689 101.2609 L 145.31689 101.2609 C 145.31889 101.287 145.32089 101.3131 145.32289 101.3391 C 145.34329 101.58529 145.36259 101.83217 145.35789 102.07939 C 145.35389 102.41111000000001 145.38058999999998 102.74188000000001 145.38809 103.07342 C 145.41009 103.49719999999999 145.44179 103.92023999999999 145.46599 104.3439 C 145.46499 104.4375 145.46099 104.66337 145.46652 104.76065 C 145.48202 105.03818 145.52822 105.31435 145.53032 105.59302 C 145.55321999999998 106.05659999999999 145.54332 106.52060999999999 145.56771999999998 106.98413 C 145.57671999999997 107.34496999999999 145.59151999999997 107.70785 145.58101999999997 108.06876999999999 C 145.57801999999998 108.15936999999998 145.56851999999998 108.24967999999998 145.56671999999998 108.34030999999999 C 145.56471999999997 108.42560999999999 145.56971999999996 108.51089999999999 145.57071999999997 108.59618999999999 C 145.58561999999998 109.18446999999999 145.58881999999997 109.77296999999999 145.58241999999996 110.36139999999999 C 145.57941999999997 111.12445 145.58041999999995 111.88744999999999 145.56421999999995 112.65037 C 145.54641999999996 113.64806 145.52141999999995 114.64569999999999 145.48091999999994 115.64276 C 145.45851999999994 115.97462999999999 145.43491999999995 116.41493 145.38901999999993 116.74616999999999 C 145.36671999999993 116.90669999999999 145.32331999999994 117.06385999999999 145.30181999999994 117.22448999999999 C 145.28431999999992 117.35479999999998 145.28191999999993 117.48669999999998 145.27191999999994 117.61779999999999 C 145.23631999999995 118.08375 145.25161999999995 117.89106999999998 145.21381999999994 118.34419999999999 C 145.17911999999995 118.63726999999999 145.13941999999994 118.92673999999998 145.07772999999995 119.21555 C 145.04992999999993 119.34581999999999 145.02372999999994 119.46406999999999 144.97401999999994 119.58722999999999 C 144.95951999999994 119.62302999999999 144.93881999999994 119.65593 144.92111999999995 119.69032999999999 C 144.92111999999995 119.69032999999999 148.40477999999993 121.51417999999998 148.40477999999993 121.51417999999998 z" stroke-linecap="round" />
</g>
		<g transform="matrix(3.7795275591 0 0 3.7795275591 140.9423873609 -158.1427257863)" id="RhicjInnPpFmi7i4AAU7I"  >
<path style="stroke: none; stroke-width: 0.264583; stroke-dasharray: none; stroke-linecap: butt; stroke-dashoffset: 0; stroke-linejoin: miter; stroke-miterlimit: 4; fill: rgb(0,0,128); fill-rule: nonzero; opacity: 1;" vector-effect="non-scaling-stroke"  transform=" translate(-147.4705356559, -101.7790246914)" d="M 148.64449 103.18506 C 148.62458999999998 103.12946 148.61088999999998 103.07155999999999 148.61328999999998 103.01213999999999 C 148.61828999999997 102.89040999999999 148.62028999999998 103.02113999999999 148.61628999999996 102.90941999999998 C 148.61928999999995 102.87201999999998 148.61128999999997 102.83471999999998 148.61028999999996 102.79768999999999 C 148.60928999999996 102.75878999999999 148.61128999999997 102.72198999999999 148.60728999999998 102.68306999999999 C 148.60028999999997 102.63786999999999 148.59248999999997 102.59296999999998 148.58868999999999 102.54729999999999 C 148.58168999999998 102.5259 148.59368999999998 102.4981 148.58569 102.4772 C 148.58489 102.4752 148.58069 102.47919999999999 148.57969 102.4812 C 148.57269 102.49510000000001 148.56969 102.51050000000001 148.56319 102.5244 C 148.54519 102.5622 148.52499 102.5988 148.50599 102.63604 C 148.49269 102.66134 148.47519 102.68494 148.46609 102.71203999999999 C 148.46409 102.71803999999999 148.47109 102.72353999999999 148.47509 102.72903999999998 C 148.48009 102.73703999999998 148.48309 102.74643999999998 148.49089 102.75233999999999 C 148.51709 102.77344 148.56159 102.77423999999999 148.59287 102.77763999999999 C 148.65887 102.78063999999999 148.72466 102.77264 148.79037 102.76714 C 148.82117 102.77214 148.89795999999998 102.75164 148.92374 102.75914 C 148.93174000000002 102.76114 148.93584 102.76924 148.94194000000002 102.77434 C 149.00914000000003 102.87164 148.90484 102.72894 148.98704 102.81403999999999 C 148.99504000000002 102.82303999999999 148.99604 102.83653999999999 149.00394 102.84573999999999 C 149.06884 102.92384 148.98504 102.80583999999999 149.05714 102.87013999999999 C 149.06514 102.87714 149.06414 102.88933999999999 149.06794 102.89903999999999 C 150.23766999999998 103.51093999999999 148.78699 102.75245999999999 145.72939 100.96390999999998 C 145.72239 100.95990999999998 145.74618999999998 100.96190999999999 145.75419 100.95890999999999 C 145.76318999999998 100.95590999999999 145.77059 100.94760999999998 145.77999 100.94720999999998 C 145.78799 100.94694999999999 145.79339 100.95420999999999 145.80059 100.95720999999999 C 145.80759 100.95920999999998 145.81479 100.95920999999998 145.82179 100.96020999999999 C 145.82679 100.96721 145.83229 100.97460999999998 145.83749 100.98181 C 145.84249 100.99190999999999 145.84549 101.00281 145.85199 101.01200999999999 C 145.85699 101.01901 145.86619 101.02100999999999 145.86969 101.02820999999999 C 145.87469 101.03870999999998 145.87368999999998 101.05120999999998 145.87669 101.06250999999999 C 145.88568999999998 101.09360999999998 145.88949 101.09760999999999 145.90449 101.12561 C 146.50652000000002 102.38772 146.62615 101.63707 149.34488000000002 103.1908 C 149.35658 103.1978 149.40628 103.1948 149.41788000000003 103.1948 C 149.43038 103.1938 149.44288000000003 103.1918 149.45528000000002 103.1908 C 149.45528000000002 103.1908 146.3428 100.78998 146.3428 100.78998 L 146.3428 100.78998 C 146.33780000000002 100.78398 146.3324 100.77698 146.3272 100.77048 C 146.316 100.75588 146.27620000000002 100.71888000000001 146.2921 100.72798 C 147.59071 101.47255 150.93429 102.65357 149.52676 102.6511 C 149.51876 102.6471 149.46406 102.6256 149.46176 102.623 C 149.45476 102.614 149.45676 102.6012 149.45126 102.59140000000001 C 149.44726 102.5844 149.44086 102.58070000000001 149.43565999999998 102.57530000000001 C 149.43166 102.56830000000001 149.42865999999998 102.56030000000001 149.42476 102.55290000000001 C 149.42376 102.54020000000001 149.42176 102.52740000000001 149.42076 102.5147 C 149.41776000000002 102.5057 149.41476 102.49650000000001 149.41276 102.48700000000001 C 149.41075999999998 102.4723 149.41259 102.4573 149.41075999999998 102.44260000000001 C 149.40975999999998 102.4317 149.41276 102.41600000000001 149.40375999999998 102.41040000000001 C 146.36493 100.62153 147.17371999999997 101.03505000000001 145.99316999999996 100.43204000000001 C 145.98296999999997 100.43404000000001 145.97286999999997 100.44004000000001 145.96246999999997 100.43904000000002 C 145.89476999999997 100.43204000000001 145.99906999999996 100.41534000000001 145.91576999999998 100.42244000000002 C 145.90237 100.42344000000003 145.88996999999998 100.43044000000002 145.87657 100.43244000000003 C 145.75403999999997 100.44544000000003 145.94566999999998 100.40664000000002 145.79156999999998 100.44144000000003 C 145.77616999999998 100.44444000000003 145.76107 100.44944000000002 145.74546999999998 100.45044000000003 C 145.70226999999997 100.45544000000002 145.65677 100.44144000000003 145.6136 100.44144000000003 C 145.5665 100.43344000000003 145.5229 100.41694000000003 145.48166999999998 100.39234000000003 C 145.42616999999998 100.36554000000004 145.40366999999998 100.35814000000003 145.34010999999998 100.36504000000004 C 145.32331 100.36704000000003 145.30441 100.36304000000004 145.28991 100.37104000000004 C 145.25790999999998 100.38994000000004 145.23371 100.41974000000003 145.20560999999998 100.44414000000003 C 145.12270999999998 100.56428000000004 145.06870999999998 100.62613000000003 145.07555999999997 100.76948000000003 C 145.07502999999997 100.83338000000003 145.07455999999996 100.89770000000003 145.08625999999998 100.96075000000003 C 145.09225999999998 100.98595000000003 145.09426 101.00165000000003 145.10415999999998 101.02555000000004 C 145.10815999999997 101.03455000000004 145.11466 101.04185000000004 145.11665999999997 101.05115000000004 C 145.11965999999995 101.06455000000004 145.11691999999996 101.07865000000004 145.11865999999998 101.09225000000004 C 145.11944999999997 101.09925000000004 145.13195999999996 101.16785000000003 145.13305999999997 101.17415000000004 C 145.13505999999998 101.18715000000005 145.13605999999996 101.20045000000005 145.14005999999998 101.21335000000003 C 145.14305999999996 101.22465000000004 145.15005999999997 101.23495000000004 145.15115999999998 101.24655000000003 C 145.15715999999998 101.29515000000002 145.14216 101.34515000000003 145.11995999999996 101.38767000000003 C 145.11995999999996 101.38767000000003 148.64394999999996 103.18323000000002 148.64394999999996 103.18323000000002 z" stroke-linecap="round" />
</g>
		<g transform="matrix(3.7795275591 0 0 3.7795275591 138.2001486614 -164.7055907618)" id="jCdjjLg-velZx6j2XFQkl"  >
<path style="stroke: none; stroke-width: 0.264583; stroke-dasharray: none; stroke-linecap: butt; stroke-dashoffset: 0; stroke-linejoin: miter; stroke-miterlimit: 4; fill: rgb(0,0,128); fill-rule: nonzero; opacity: 1;" vector-effect="non-scaling-stroke"  transform=" translate(-146.744985, -100.0426)" d="M 146.68248 98.63003 L 146.80749 101.45517000000001" stroke-linecap="round" />
</g>
		<g transform="matrix(3.7795275591 0 0 3.7795275591 -151.0901952756 98.9771972697)" id="-QXat4ZX4vXmk3FBJ0IEV"  >
<path style="stroke: none; stroke-width: 0.264583; stroke-dasharray: none; stroke-linecap: butt; stroke-dashoffset: 0; stroke-linejoin: miter; stroke-miterlimit: 4; fill: rgb(0,0,128); fill-rule: nonzero; opacity: 1;" vector-effect="non-scaling-stroke"  transform=" translate(-12.20062, -10.60054)" d="M 0 21.20108 L 0 0 L 24.40124 0 L 24.40124 21.20108 z" stroke-linecap="round" />
</g>
		<g transform="matrix(3.7795275591 0 0 3.7795275591 -135.4508455807 148.2844312854)" style="" id="7-1eHvm9wuH27pyuvnZ40"  >
		<text xml:space="preserve" font-family="Times New Roman" font-size="3.175" font-style="normal" font-weight="normal" line-height="1" style="stroke: none; stroke-width: 0.264583; stroke-dasharray: none; stroke-linecap: butt; stroke-dashoffset: 0; stroke-linejoin: miter; stroke-miterlimit: 4; fill: rgb(0,0,128); fill-rule: nonzero; opacity: 1; white-space: pre;" ><tspan x="-8.1638427734" y="0.9973945" >@Neurolius</tspan></text>
</g>
</g>
</g>
</svg>